<svg xmlns="http://www.w3.org/2000/svg" version="1.1" xmlns:xlink="http://www.w3.org/1999/xlink" xmlns:svgjs="http://svgjs.dev/svgjs" width="1000" height="340" viewBox="0 0 1000 340"><g transform="matrix(1,0,0,1,-0.6060606060606233,0.42740349549114853)"><svg viewBox="0 0 396 135" data-background-color="#ffffff" preserveAspectRatio="xMidYMid meet" height="340" width="1000" xmlns="http://www.w3.org/2000/svg" xmlns:xlink="http://www.w3.org/1999/xlink"><g id="tight-bounds" transform="matrix(1,0,0,1,0.2400000000000091,-0.16970432909207034)"><svg viewBox="0 0 395.52 135.33940865818417" height="135.33940865818417" width="395.52"><rect width="395.52" height="135.33940865818417" fill="url(#2ef5b4a6-9185-4857-85b5-31722f114496)" mask="url(&quot;#ba2f083b-9f6a-4825-9a18-24a524a47dda&quot;)" data-fill-palette-color="secondary"></rect><g><svg viewBox="0 0 654.5255309483103 223.96616684422617" height="135.33940865818417" width="395.52"><g transform="matrix(1,0,0,1,259.00553094831037,43.18570033293413)"><svg viewBox="0 0 395.52 137.5947661783579" height="137.5947661783579" width="395.52"><g id="textblocktransform"><svg viewBox="0 0 395.52 137.5947661783579" height="137.5947661783579" width="395.52" id="textblock"><g><svg viewBox="0 0 395.52 74.21204210526317" height="74.21204210526317" width="395.52"><g transform="matrix(1,0,0,1,0,0)"><svg width="395.52" viewBox="1.25 -35.05 189.99 35.65" height="74.21204210526317" data-palette-color="#471aa0"><g class="undefined-text-0" data-fill-palette-color="primary" id="text-0"><path d="M35.7-34.45L40.05-34.45 33.05 0 26.95 0 20.6-28.85 14.2 0 8.25 0 1.25-34.45 5.9-34.45 11.45-4.15 18.1-34.45 23.15-34.45 29.95-4.15 35.7-34.45ZM46.3-34.45L51.05-34.45 51.05 0 46.3 0 46.3-34.45ZM61.05-34.45L65.8-34.45 65.8-4.15 79.95-4.15 79.4 0 61.05 0 61.05-34.45ZM97.99-35.05Q101.09-35.05 103.22-34.25 105.34-33.45 107.54-31.65L107.54-31.65 104.94-28.6Q101.79-31.15 98.29-31.15L98.29-31.15Q93.99-31.15 91.37-27.85 88.74-24.55 88.74-17.25L88.74-17.25Q88.74-10.15 91.34-6.78 93.94-3.4 98.24-3.4L98.24-3.4Q100.44-3.4 102.09-4.15 103.74-4.9 105.59-6.25L105.59-6.25 107.94-3.25Q106.34-1.6 103.84-0.5 101.34 0.6 98.09 0.6L98.09 0.6Q93.89 0.6 90.62-1.48 87.34-3.55 85.52-7.58 83.69-11.6 83.69-17.25L83.69-17.25Q83.69-22.9 85.59-26.93 87.49-30.95 90.74-33 93.99-35.05 97.99-35.05L97.99-35.05ZM112.24-34.45L132.79-34.45 132.79-30.6 115.74-4.05 132.79-4.05 132.24 0 110.44 0 110.44-3.8 127.64-30.45 112.24-30.45 112.24-34.45ZM140.04-34.45L158.69-34.45 158.14-30.65 144.79-30.65 144.79-19.4 156.39-19.4 156.39-15.6 144.79-15.6 144.79-3.8 159.09-3.8 159.09 0 140.04 0 140.04-34.45ZM166.79-34.45L171.54-34.45 171.54 0 166.79 0 166.79-34.45ZM184.89-34.45L190.29-34.45 177.24-18.7 191.24 0 185.39 0 171.79-18.4 184.89-34.45Z" fill="#471aa0" data-fill-palette-color="primary"></path></g></svg></g></svg></g><g transform="matrix(1,0,0,1,0,91.73172415730528)"><svg viewBox="0 0 115.19309386743784 45.863042021052635" height="45.863042021052635" width="115.19309386743784"><g transform="matrix(1,0,0,1,0,0)"><svg width="115.19309386743784" viewBox="3.61 -35.55 89.28 35.55" height="45.863042021052635" data-palette-color="url(#2ef5b4a6-9185-4857-85b5-31722f114496)"></svg></g></svg></g></svg></g></svg></g><g><svg viewBox="0 0 223.96616684422617 223.96616684422617" height="223.96616684422617" width="223.96616684422617"><g><svg></svg></g><g id="icon-0"><svg viewBox="0 0 223.96616684422617 223.96616684422617" height="223.96616684422617" width="223.96616684422617"><g><path d="M0 111.983c0-61.847 50.137-111.983 111.983-111.983 61.847 0 111.983 50.137 111.983 111.983 0 61.847-50.137 111.983-111.983 111.983-61.847 0-111.983-50.137-111.983-111.983zM111.983 217.274c58.15 0 105.291-47.14 105.291-105.291 0-58.15-47.14-105.291-105.291-105.29-58.15 0-105.291 47.14-105.29 105.29 0 58.15 47.14 105.291 105.29 105.291z" data-fill-palette-color="accent" fill="#471aa0" stroke="transparent"></path></g><g transform="matrix(1,0,0,1,50.2672207634151,57.61098474110914)"><svg viewBox="0 0 123.43172531739597 108.74419736200788" height="108.74419736200788" width="123.43172531739597"><g><svg xmlns="http://www.w3.org/2000/svg" xmlns:xlink="http://www.w3.org/1999/xlink" version="1.1" x="0" y="0" viewBox="6.3 11.5 87.4 77" style="enable-background:new 0 0 100 100;" xml:space="preserve" height="108.74419736200788" width="123.43172531739597" class="icon-_$-0" data-fill-palette-color="accent" id="_$-0"><path d="M72.3 12.3L72.3 12.3 72.3 12.3l-0.4-0.8H28.2L6.3 50l21.8 38.5h43.7L93.7 50 72.3 12.3zM33.3 25.3L9.9 47.7l18.6-32.8L33.3 25.3zM70.7 14.8l6.4 35.7L36.9 25.8 70.7 14.8zM35.5 27.3l41 25.2-41 23.3V27.3zM77 54.5l-7.2 30.8-32.6-8.1L77 54.5zM33.5 75L9.9 50.5l23.6-22.7V75zM33.2 77.6l-4.6 7.7L11.5 55.1 33.2 77.6zM35 78.6l31.4 7.9H30.2L35 78.6zM79.3 53.3l11.6-2.5L72.1 84 79.3 53.3zM90.7 48.9l-11.4 2.5-5.9-33.1L90.7 48.9zM35 24.3l-5-10.8h38.2L35 24.3z" fill="#471aa0" data-fill-palette-color="accent"></path></svg></g></svg></g></svg></g></svg></g></svg></g><defs></defs><mask id="ba2f083b-9f6a-4825-9a18-24a524a47dda"><g id="SvgjsG1277"><svg viewBox="0 0 395.52 135.33940865818417" height="135.33940865818417" width="395.52"><g><svg viewBox="0 0 654.5255309483103 223.96616684422617" height="135.33940865818417" width="395.52"><g transform="matrix(1,0,0,1,259.00553094831037,43.18570033293413)"><svg viewBox="0 0 395.52 137.5947661783579" height="137.5947661783579" width="395.52"><g id="SvgjsG1276"><svg viewBox="0 0 395.52 137.5947661783579" height="137.5947661783579" width="395.52" id="SvgjsSvg1275"><g><svg viewBox="0 0 395.52 74.21204210526317" height="74.21204210526317" width="395.52"><g transform="matrix(1,0,0,1,0,0)"><svg width="395.52" viewBox="1.25 -35.05 189.99 35.65" height="74.21204210526317" data-palette-color="#471aa0"><g class="undefined-text-0" data-fill-palette-color="primary" id="SvgjsG1274"></g></svg></g></svg></g><g transform="matrix(1,0,0,1,0,91.73172415730528)"><svg viewBox="0 0 115.19309386743784 45.863042021052635" height="45.863042021052635" width="115.19309386743784"><g transform="matrix(1,0,0,1,0,0)"><svg width="115.19309386743784" viewBox="3.61 -35.55 89.28 35.55" height="45.863042021052635" data-palette-color="url(#2ef5b4a6-9185-4857-85b5-31722f114496)"><path d="M13.84 0L3.61 0 3.61-35.55 14.11-35.55Q18.82-35.55 22.47-33.45 26.12-31.35 28.13-27.49 30.13-23.63 30.13-18.65L30.13-18.65 30.13-16.87Q30.13-11.82 28.11-7.98 26.1-4.15 22.38-2.08 18.65 0 13.84 0L13.84 0ZM14.11-30.57L9.79-30.57 9.79-4.93 13.82-4.93Q18.68-4.93 21.28-7.97 23.88-11.01 23.93-16.7L23.93-16.7 23.93-18.68Q23.93-24.46 21.41-27.51 18.9-30.57 14.11-30.57L14.11-30.57ZM57.05-20.75L57.05-15.87 42.45-15.87 42.45-4.93 59.52-4.93 59.52 0 36.28 0 36.28-35.55 59.35-35.55 59.35-30.57 42.45-30.57 42.45-20.75 57.05-20.75ZM68.13-35.55L77.07-7.74 86.1-35.55 92.89-35.55 80.1 0 74.12 0 61.37-35.55 68.13-35.55Z" opacity="1" transform="matrix(1,0,0,1,0,0)" fill="white" class="undefined-text-1" id="SvgjsPath1273"></path></svg></g></svg></g></svg></g></svg></g><g><svg viewBox="0 0 223.96616684422617 223.96616684422617" height="223.96616684422617" width="223.96616684422617"><g><svg></svg></g><g id="SvgjsG1272"><svg viewBox="0 0 223.96616684422617 223.96616684422617" height="223.96616684422617" width="223.96616684422617"><g></g><g transform="matrix(1,0,0,1,50.2672207634151,57.61098474110914)"><svg viewBox="0 0 123.43172531739597 108.74419736200788" height="108.74419736200788" width="123.43172531739597"><g><svg xmlns="http://www.w3.org/2000/svg" xmlns:xlink="http://www.w3.org/1999/xlink" version="1.1" x="0" y="0" viewBox="6.3 11.5 87.4 77" style="enable-background:new 0 0 100 100;" xml:space="preserve" height="108.74419736200788" width="123.43172531739597" class="icon-_$-0" data-fill-palette-color="accent" id="SvgjsSvg1271"></svg></g></svg></g></svg></g></svg></g></svg></g><defs><mask></mask></defs></svg></g></mask><linearGradient x1="0" x2="1" y1="0.5" y2="0.5" id="2ef5b4a6-9185-4857-85b5-31722f114496"><stop stop-color="#ffa62e" offset="0"></stop><stop stop-color="#f71b3d" offset="1"></stop></linearGradient></svg><rect width="395.52" height="135.33940865818417" fill="none" stroke="none" visibility="hidden"></rect></g></svg></g></svg>